<?xml version="1.0" standalone="no"?>
<!DOCTYPE svg PUBLIC "-//W3C//DTD SVG 20010904//EN"
 "http://www.w3.org/TR/2001/REC-SVG-20010904/DTD/svg10.dtd">
<svg version="1.0" xmlns="http://www.w3.org/2000/svg"
 width="720.000000pt" height="271.000000pt" viewBox="0 0 720.000000 271.000000"
 preserveAspectRatio="xMidYMid meet">
<metadata>
Created by potrace 1.15, written by Peter Selinger 2001-2017
</metadata>
<g transform="translate(0.000000,271.000000) scale(0.100000,-0.100000)"
fill="#000000" stroke="none">
<path d="M580 2321 c-89 -29 -141 -60 -206 -125 -65 -65 -102 -127 -128 -215
-14 -48 -16 -130 -16 -636 0 -632 0 -625 57 -740 33 -64 134 -165 198 -198
115 -57 108 -57 740 -57 632 0 625 0 740 57 64 33 165 134 198 198 57 115 57
108 57 740 0 632 0 625 -57 740 -33 64 -134 165 -198 198 -115 58 -108 57
-744 56 -533 0 -591 -2 -641 -18z m718 -240 c334 -179 252 -680 -120 -736 -97
-15 -228 36 -304 117 -190 203 -121 537 133 639 38 15 67 19 138 16 80 -3 97
-7 153 -36z m678 -455 c2 -1 -53 -399 -61 -442 -5 -30 -6 -31 -54 -26 -94 9
-179 -53 -199 -146 -24 -103 35 -190 153 -227 16 -6 9 -12 -40 -37 -70 -36
-208 -88 -233 -88 -15 0 -21 28 -47 220 -19 149 -32 220 -41 220 -59 0 -282
-90 -342 -138 l-24 -18 24 -180 c23 -176 24 -179 5 -182 -11 -2 -23 1 -26 7
-4 6 -15 80 -25 164 -10 83 -25 162 -32 174 -22 36 -103 55 -258 60 l-139 6 7
-71 c6 -64 5 -71 -13 -77 -18 -6 -71 -60 -99 -101 -11 -16 -12 -7 -9 57 8 168
133 328 350 448 113 62 121 62 220 2 46 -28 91 -53 100 -57 12 -4 40 19 98 80
81 86 81 86 123 80 136 -19 293 -76 389 -143 l43 -29 28 201 c39 282 33 259
70 251 17 -3 32 -7 32 -8z m-57 -535 c44 -31 64 -67 64 -116 0 -52 -21 -87
-73 -122 -109 -75 -251 54 -195 177 36 80 135 109 204 61z m-1156 -285 c54
-23 80 -59 85 -118 3 -44 0 -59 -20 -88 -31 -46 -82 -72 -131 -66 -141 17
-174 205 -47 268 42 22 70 22 113 4z"/>
<path d="M2542 2238 c-17 -17 -17 -889 0 -906 16 -16 63 -15 77 1 7 9 12 109
13 298 l3 284 104 -285 c57 -157 108 -291 113 -297 17 -22 66 -16 81 10 8 12
59 146 113 297 l99 275 3 -284 c1 -189 6 -289 13 -298 14 -16 61 -17 77 -1 9
9 12 124 12 454 0 486 2 468 -61 462 l-33 -3 -130 -357 c-71 -197 -132 -358
-136 -358 -4 0 -57 141 -120 313 -153 424 -145 407 -184 407 -18 0 -37 -5 -44
-12z"/>
<path d="M4260 2231 c-6 -12 -10 -95 -10 -200 l0 -180 -35 21 c-22 12 -61 22
-99 25 -124 10 -212 -57 -251 -192 -70 -240 138 -463 337 -362 45 23 45 23 54
2 10 -22 34 -30 70 -21 l24 6 0 454 c0 405 -2 455 -16 460 -31 12 -63 6 -74
-13z m-82 -443 c60 -56 89 -176 61 -259 -24 -71 -87 -129 -139 -129 -91 0
-168 143 -141 263 30 133 141 197 219 125z"/>
<path d="M6875 2198 c-39 -21 -55 -51 -55 -103 0 -76 41 -115 120 -115 79 0
120 39 120 115 0 53 -17 83 -57 104 -28 14 -102 14 -128 -1z"/>
<path d="M3310 1885 c-9 -11 -11 -60 -8 -187 4 -193 17 -239 81 -307 69 -72
181 -92 269 -48 45 23 45 23 54 2 10 -22 34 -30 70 -21 l24 6 0 279 c0 245 -2
280 -16 285 -31 12 -63 6 -74 -13 -5 -11 -10 -87 -10 -174 0 -148 -1 -155 -27
-208 -66 -129 -175 -127 -246 6 -19 35 -22 59 -25 205 -2 93 -8 170 -14 178
-14 17 -63 15 -78 -3z"/>
<path d="M4539 1887 c-58 -22 -96 -54 -118 -100 -35 -73 -24 -117 29 -117 32
0 50 17 50 48 0 34 58 89 103 97 20 4 52 4 71 1 44 -8 96 -66 96 -105 l0 -29
-37 14 c-45 16 -135 18 -182 4 -138 -39 -196 -197 -109 -296 17 -19 50 -45 72
-56 54 -28 157 -35 213 -15 36 12 44 12 54 1 12 -15 46 -18 73 -8 14 5 16 34
16 214 0 216 -5 247 -43 288 -57 61 -203 91 -288 59z m161 -272 c76 -39 92
-115 37 -170 -63 -63 -167 -56 -214 14 -29 43 -29 80 -1 116 40 51 121 70 178
40z"/>
<path d="M4932 1888 c-17 -17 -17 -539 0 -556 16 -16 63 -15 76 1 6 7 12 85
14 182 3 165 4 171 31 218 36 61 63 78 137 84 71 7 88 22 71 60 -11 25 -14 25
-81 21 -41 -3 -86 -14 -111 -26 -24 -12 -43 -20 -43 -19 -10 38 -68 61 -94 35z"/>
<path d="M5433 1886 c-115 -37 -164 -127 -110 -207 30 -46 98 -78 188 -88 85
-9 135 -31 151 -66 39 -87 -97 -157 -202 -103 -36 18 -47 31 -55 60 -13 48
-26 60 -60 56 -98 -11 -27 -163 95 -203 103 -34 226 -7 294 64 38 39 46 111
21 165 -32 66 -92 93 -248 112 -61 7 -118 53 -101 80 20 34 61 55 115 60 73 7
139 -25 152 -74 7 -32 10 -33 50 -30 41 3 42 4 45 41 9 103 -185 180 -335 133z"/>
<path d="M5975 1877 c-57 -27 -99 -71 -129 -137 -29 -63 -28 -196 1 -261 47
-103 124 -159 223 -159 72 0 126 26 178 85 62 70 57 115 -14 115 -17 0 -31
-11 -49 -40 -29 -46 -78 -80 -115 -80 -58 0 -124 75 -144 163 l-6 27 184 0
c221 0 217 -2 192 97 -34 138 -100 205 -210 211 -48 2 -71 -2 -111 -21z m139
-69 c30 -13 52 -44 71 -99 l14 -39 -135 0 -135 0 6 23 c13 43 57 99 88 112 40
18 59 18 91 3z"/>
<path d="M6505 1877 c-57 -27 -99 -71 -129 -137 -29 -63 -28 -196 1 -261 47
-103 124 -159 223 -159 72 0 126 26 178 85 62 70 57 115 -14 115 -17 0 -31
-11 -49 -40 -29 -46 -78 -80 -115 -80 -58 0 -124 75 -144 163 l-6 27 184 0
c221 0 217 -2 192 97 -34 138 -100 205 -210 211 -48 2 -71 -2 -111 -21z m139
-69 c30 -13 52 -44 71 -99 l14 -39 -135 0 -135 0 6 23 c13 43 57 99 88 112 40
18 59 18 91 3z"/>
<path d="M2510 1056 c0 -58 16 -86 48 -86 15 0 33 5 39 11 8 8 13 8 17 0 11
-17 63 -13 70 5 3 9 6 36 6 60 0 37 -3 44 -20 44 -16 0 -20 -7 -20 -34 0 -19
-4 -37 -9 -40 -11 -7 -21 17 -21 50 0 17 -6 24 -20 24 -16 0 -20 -7 -20 -34 0
-19 -4 -38 -10 -41 -6 -4 -10 10 -10 34 0 37 -2 41 -25 41 -22 0 -25 -4 -25
-34z"/>
<path d="M2886 1009 c-90 -21 -146 -98 -154 -211 l-5 -68 92 0 91 0 0 -26 c0
-100 -113 -166 -198 -114 -54 33 -72 74 -72 163 l0 77 -50 0 -50 0 0 -82 c1
-46 7 -100 14 -121 62 -173 276 -217 396 -81 49 56 60 92 60 194 l0 90 -80 0
c-44 0 -80 4 -80 9 0 5 13 23 29 40 59 63 144 28 176 -72 47 -143 53 -147 255
-147 82 0 150 4 150 9 0 5 18 0 40 -11 48 -24 107 -17 148 17 l27 23 28 -24
c54 -47 149 -37 191 19 18 25 21 45 25 158 l3 129 -51 0 -51 0 0 -100 c0 -87
-3 -103 -20 -120 -27 -27 -46 -25 -81 9 -27 28 -29 34 -29 110 l0 81 -50 0
-50 0 0 -90 c0 -77 -3 -93 -20 -110 -27 -27 -46 -25 -81 9 -27 28 -29 34 -29
110 l0 81 -50 0 -50 0 0 -105 0 -105 -76 0 c-41 0 -84 4 -94 10 -10 5 -26 33
-36 62 -39 120 -81 168 -164 187 -52 12 -52 12 -104 0z"/>
<path d="M5004 972 c-46 -29 -66 -81 -62 -158 l3 -65 -94 3 -94 3 -13 52 c-26
101 -99 173 -176 173 l-38 0 0 -45 c0 -36 3 -45 18 -45 24 -1 56 -28 81 -70
40 -67 36 -70 -99 -70 l-120 0 -20 -40 c-11 -21 -20 -42 -20 -45 0 -3 184 -4
409 -3 l409 3 27 25 c76 69 73 192 -4 265 -28 26 -40 30 -104 33 -58 2 -78 -1
-103 -16z m141 -87 c46 -45 19 -145 -40 -145 -31 0 -65 44 -65 85 0 38 34 85
61 85 11 0 31 -11 44 -25z"/>
<path d="M4128 827 c-3 -148 -4 -155 -30 -195 -31 -46 -74 -73 -131 -81 l-38
-6 31 -37 c22 -27 39 -38 58 -38 43 1 104 34 144 78 54 60 68 118 68 289 l0
143 -49 0 -49 0 -4 -153z"/>
</g>
</svg>
